<?xml version="1.0" encoding="UTF-8"?>
<svg width="66px" height="66px" viewBox="0 0 66 66" version="1.1" xmlns="http://www.w3.org/2000/svg" xmlns:xlink="http://www.w3.org/1999/xlink">
    <title>hs-sb1</title>
    <defs>
        <linearGradient x1="50%" y1="0%" x2="50%" y2="100%" id="linearGradient-1">
            <stop stop-color="#FFFFFF" offset="0%"></stop>
            <stop stop-color="#E7F5F6" offset="100%"></stop>
        </linearGradient>
        <linearGradient x1="50%" y1="0%" x2="50%" y2="100%" id="linearGradient-2">
            <stop stop-color="#0CD3FF" offset="0%"></stop>
            <stop stop-color="#22C2FF" offset="51.1384055%"></stop>
            <stop stop-color="#0095FF" offset="100%"></stop>
        </linearGradient>
        <linearGradient x1="50%" y1="0%" x2="50%" y2="100%" id="linearGradient-3">
            <stop stop-color="#95FEFF" offset="0%"></stop>
            <stop stop-color="#00C2FF" stop-opacity="0" offset="100%"></stop>
        </linearGradient>
    </defs>
    <g id="页面-1" stroke="none" stroke-width="1" fill="none" fill-rule="evenodd">
        <g id="首页组件全部" transform="translate(-454.000000, -1533.000000)" fill-rule="nonzero">
            <g id="hs-sb1" transform="translate(454.000000, 1533.000000)">
                <ellipse id="椭圆形" fill="#DEF9FA" cx="25.5" cy="3.5" rx="23.5" ry="3.5"></ellipse>
                <path d="M2,3.5 C2,5.41051992 12.2780494,6.96350858 25.0482644,6.99936627 L25.5,7 C38.4786916,7 49,5.43299662 49,3.5 C49,3.43659556 48.98868,3.3735849 48.9663246,3.31101041 C49.6587146,4.05449181 50.0822117,5.05635447 50.0822117,6.15600151 L50.0822117,13.4138584 L57.4889051,13.4138584 C62.1826119,13.4138584 66,17.279061 66,22.028777 L66,30.0499811 C66,37.5501704 61.5343761,44.1537296 54.6318661,46.8799697 L50.1302292,48.6611132 L50.058203,48.3097312 L50.058203,52.1264672 C50.058203,59.7841727 43.911968,66 36.3132048,66 L13.7449982,66 C6.15823936,66 0,59.7962893 0,52.1264672 L0,6.15600151 C0,3.85384324 1.84867224,2 4.11749727,2 L4.26355499,1.99934839 C2.8121669,2.45414172 2,2.96294488 2,3.5 Z M55.580211,20.2961 L50.0822117,20.2961 L50.0822117,41.5728891 L53.3714078,40.2642938 C58.9414332,38.0590685 59.2055293,32.7277546 59.2055293,26.6936766 L59.2175336,23.9674366 C59.2175336,21.9439606 57.5729356,20.2961 55.580211,20.2961 Z" id="形状结合" fill="url(#linearGradient-1)"></path>
                <path d="M35.8400683,10.1074315 C24.5700057,11.0911138 24.3252703,15.0381389 16.7017644,15.8250847 C10.7424587,16.4275901 4,13.2183267 4,13.2183267 L4,52.3476178 C4,57.671798 8.29510529,62 13.6058623,62 L37.381901,62 C42.6804212,62 46.9877632,57.6840941 46.9877632,52.3476178 L46.9877632,13.2306227 L47,13.2306227 C46.9877632,13.2306227 44.9809334,9.3081897 35.8400683,10.1074315 Z M11.2768924,54.7905057 C10.6038702,54.7905057 10.0409789,54.2371844 10.0409789,53.5486068 C10.0409789,52.8723253 10.5916335,52.306708 11.2768924,52.306708 C11.9621514,52.306708 12.5128059,52.8600293 12.5128059,53.5486068 C12.5128059,54.2371844 11.9621514,54.7905057 11.2768924,54.7905057 Z M10.0532157,41.6583475 C8.67046101,41.6583475 7.54467843,40.5394089 7.54467843,39.1376617 C7.54467843,37.7359144 8.65822425,36.6169759 10.0532157,36.6169759 C11.4482072,36.6169759 12.561753,37.7359144 12.561753,39.1376617 C12.561753,40.5394089 11.4237336,41.6583475 10.0532157,41.6583475 Z M15.9635743,47.7694735 C15.2171315,47.7694735 14.6052931,47.1546721 14.6052931,46.4046144 C14.6052931,45.6545567 15.2171315,45.0397553 15.9635743,45.0397553 C16.7100171,45.0397553 17.3218554,45.6545567 17.3218554,46.4046144 C17.3096187,47.1546721 16.7100171,47.7694735 15.9635743,47.7694735 Z" id="形状" fill="url(#linearGradient-2)"></path>
                <path d="M27,15.0343684 C22.8751848,15.7115537 18.1774474,12.7587152 13.6058623,13.2306227 C7.64655663,13.8331281 4,17.2275705 4,17.2275705 L4,22.3476178 L46.9877632,22.3476178 L46.9877632,13.2306227 L47,13.2306227 C46.9910423,13.2306227 44.3274366,11.5 39,11.5 C33.6725634,11.5 31.1248152,14.3571831 27,15.0343684 Z" id="路径" fill="url(#linearGradient-3)"></path>
            </g>
        </g>
    </g>
</svg>